PathFileType	4	(X/Y/Z)	D:\TRACE\v60_Jaco2_6-2-23\JustBodyDRS_Motion1_2-v60.trc
DataRate	CameraRate	NumFrames	NumMarkers	Units	OrigDataRate	OrigDataStartFrame	OrigNumFrames
100.00	100.00	      24	9	mm	100.00	2608	      6954
Frame#	Time	front left toe			Front right toe			aft left toe			aft right toe			Arm			FL body			FR body			AL Body			AR Body			
		X1	Y1	Z1	X2	Y2	Z2	X3	Y3	Z3	X4	Y4	Z4	X5	Y5	Z5	X6	Y6	Z6	X7	Y7	Z7	X8	Y8	Z8	X9	Y9	Z9	

2608	26.070	-67.51280	19.18064	-264.37100	299.22986	144.03235	-295.76257	-34.85567	137.62852	351.25308	346.25793	14.79605	333.11655	26.17260	1218.88281	-387.72089	37.83538	587.02832	-411.47110	197.95305	583.78516	-422.38614	99.26718	543.81067	532.12067	257.14096	535.76495	523.53052	
2609	26.080	-67.96656	18.93816	-264.43188	300.34827	145.72104	-295.08075	-33.80272	139.84946	352.70831	345.01642	14.63793	332.97336	25.84985	1217.81165	-388.77753	37.27889	586.53729	-411.18851	196.97917	583.23444	-422.40155	99.93430	544.16583	532.31830	257.74286	536.00159	523.52338	
2610	26.090	-68.87217	18.44245	-264.43619	301.91174	144.36958	-294.38837	-32.80705	139.15340	354.27325	344.37314	14.68927	332.80560	25.57706	1217.22852	-389.73056	36.22766	586.24377	-410.70465	196.22540	582.78784	-422.42758	100.80463	544.73962	532.33167	259.56921	536.16083	522.45398	
2611	26.100	-69.97022	18.34550	-264.41489	302.99353	140.77905	-294.04135	-31.37243	136.72156	355.93872	343.62897	14.90080	332.70871	25.18201	1217.37537	-389.94711	35.80743	585.86652	-410.77551	195.67569	582.42523	-422.44891	101.48806	545.85370	532.36993	258.86807	536.69470	522.46436	
2612	26.110	-70.75320	18.31512	-264.63129	303.67728	135.81839	-294.04303	-29.06816	133.32294	357.03711	342.64944	15.18665	332.56360	24.63899	1217.47717	-390.35788	34.87398	585.71436	-410.85150	194.67355	581.64343	-422.42426	102.26552	546.54449	532.51630	259.53079	537.40845	522.14417	
2613	26.120	-71.11682	18.11782	-264.68918	304.65948	129.56731	-293.99631	-27.24709	128.71072	358.03394	341.79831	15.22007	332.32443	24.23931	1217.32922	-390.74130	34.69350	585.03705	-410.45407	194.03247	581.14172	-422.61649	102.37290	547.28052	532.35522	259.94492	538.60272	523.01300	
2614	26.130	-72.10643	17.79138	-264.36923	305.31848	122.95340	-294.07486	-23.85558	121.77470	359.36078	341.18961	15.34279	332.08484	24.07169	1216.82532	-391.05844	34.14284	584.61676	-410.43964	193.88326	580.88672	-423.08884	102.80022	547.83185	532.26099	261.96210	539.18579	522.88525	
2615	26.140	-73.26675	17.55320	-264.48462	306.66382	115.40629	-294.39841	-22.85986	114.60108	359.76529	340.22958	15.47677	331.88165	23.92575	1216.27893	-391.77264	33.23926	584.30798	-410.85614	193.02028	580.49164	-423.33752	103.46991	548.00861	532.32855	262.36734	539.46704	522.62054	
2616	26.150	-73.97466	17.49211	-264.62689	307.53152	106.96334	-294.63174	-21.72611	106.18680	360.14182	339.46106	15.50403	331.68085	23.82455	1215.88696	-392.82904	32.50473	584.16211	-410.87192	192.22681	580.19855	-423.62335	104.05800	548.34698	532.11041	261.60449	539.39050	522.34839	
2617	26.160	-74.78083	17.31067	-264.81503	308.92700	98.30042	-295.20126	-18.99375	95.83817	360.53339	338.40259	15.47039	331.54388	23.49477	1215.75842	-393.57285	31.49743	583.96997	-411.00092	191.34126	580.24854	-424.43585	104.46706	548.70215	531.70374	262.14804	539.93317	521.94470	
2618	26.170	-76.16488	17.28862	-264.56726	310.25241	89.45158	-295.63477	-16.65081	84.61876	360.69196	337.63965	15.71833	331.57187	22.91345	1215.69482	-394.15628	30.38210	583.70276	-411.33774	190.79984	579.62982	-424.42307	104.84673	549.12457	531.35632	262.41556	540.31744	521.50110	
2619	26.180	-76.78452	17.08513	-264.74969	311.15891	80.00085	-296.59875	-14.36452	75.31017	360.11038	336.90289	15.91611	331.29105	22.03067	1215.29895	-394.88461	29.98012	583.08582	-411.70465	189.97662	578.96106	-425.02661	105.16953	549.60565	530.91644	264.09256	540.71802	520.91705	
2620	26.190	-77.32228	16.61542	-264.77319	312.22781	70.69846	-297.27625	-12.27504	65.42897	359.61758	336.04837	16.08370	331.09299	21.08485	1214.78357	-395.36044	29.96679	582.46643	-411.93219	189.10924	578.45160	-424.88611	105.25497	549.68915	530.62439	263.20285	540.71576	520.39771	
2621	26.200	-78.58749	16.49779	-264.67331	312.70306	61.28359	-298.38959	-10.75541	56.58520	359.21704	335.37314	16.04703	330.99500	20.31456	1214.46582	-396.20486	29.24392	582.08752	-412.12863	188.44995	578.24762	-425.36499	105.66325	549.66553	530.27844	263.35516	540.92786	519.82013	
2622	26.210	-79.46898	16.37324	-265.01950	312.88684	52.18953	-299.60403	-10.03054	49.67964	357.43787	334.35910	16.19695	330.80112	19.25900	1214.26245	-396.82898	28.08841	582.06482	-412.80530	187.90456	578.02032	-426.07266	106.05309	549.66125	529.80255	263.54565	541.17230	519.43304	
2623	26.220	-80.25200	16.14424	-265.09460	313.38742	44.37361	-300.97018	-9.92285	42.61285	355.49576	333.66153	16.37318	330.79044	17.61670	1213.75305	-397.73926	27.63173	581.75470	-413.45563	187.56586	578.04407	-427.24823	106.28901	549.61230	529.35406	263.69009	541.38165	518.18884	
2624	26.230	-81.12553	16.10802	-264.91537	313.27420	38.71085	-302.81784	-10.06195	35.18946	353.88257	332.71497	16.43982	330.73856	16.34792	1213.21802	-398.42239	27.28851	581.43091	-413.96191	186.94337	577.98706	-427.78339	106.48990	549.61230	528.56189	265.27188	541.22864	516.46606	
2625	26.240	-82.39079	16.04666	-265.05417	313.75162	34.03399	-304.53638	-10.56790	27.98116	352.19226	331.68353	16.33803	330.52637	14.56771	1212.90454	-398.88266	26.18830	581.20551	-414.79999	186.53583	577.97089	-428.86111	106.63755	549.51740	527.70831	264.12878	541.15826	515.53918	
2626	26.250	-82.94073	15.63966	-265.20825	313.59320	29.08418	-306.22220	-10.90922	22.40097	350.24377	331.02945	16.56358	330.35312	12.52543	1212.59534	-399.78043	26.09359	580.75873	-415.54623	185.92326	577.78644	-429.65616	106.88284	549.66870	527.35950	264.30710	541.46570	514.60114	
2627	26.260	-83.84958	15.48490	-265.31113	313.19708	23.42134	-308.14493	-11.28176	19.26014	347.53012	330.10822	16.60149	330.17392	10.78213	1212.43469	-400.38242	25.65678	580.60419	-416.14832	185.46309	577.86792	-430.45056	107.30342	549.22705	526.00018	264.54846	541.94684	514.69098	
2628	26.270	-85.17265	15.63035	-265.45929	313.44299	17.75380	-309.98788	-12.95138	17.85679	347.94675	329.02667	16.93674	330.17136	8.79473	1212.47778	-400.89810	24.49867	580.30396	-417.04501	184.60152	577.66742	-431.53336	107.29816	550.54199	525.11188	266.09033	542.35229	512.36285	
2629	26.280	-85.86975	15.68109	-265.44016	312.69336	16.18891	-311.58755	-14.50917	19.08582	347.90720	328.05457	17.20122	329.95132	7.86605	1212.23889	-402.54642	23.89573	580.02435	-417.97784	182.91963	577.22504	-432.78308	107.88265	552.13452	524.12769	265.08578	543.65662	511.23538	
2630	26.290	-86.25051	15.17884	-265.56586	311.91367	13.57385	-311.73007	-14.99246	20.19688	348.16190	327.17181	17.55449	329.80750	7.59092	1212.39917	-404.96854	23.61305	579.80212	-418.24042	182.34653	577.48560	-433.15732	107.96912	553.06738	523.42401	265.10278	545.25537	510.35941	
2631	26.300	-86.90893	16.10958	-266.35306	311.16351	13.22464	-311.65994	-15.27399	19.70218	348.17783	326.39450	18.65537	329.20508	5.61443	1212.24451	-407.29544	21.87668	580.37897	-419.06464	181.17026	578.44000	-433.78735	107.76399	554.34094	522.76471	265.35721	546.61548	509.28998	
